<?xml version="1.0" encoding="UTF-8" standalone="no"?>
<!DOCTYPE svg PUBLIC "-//W3C//DTD SVG 1.1//EN" "http://www.w3.org/Graphics/SVG/1.1/DTD/svg11.dtd" [
       <!ENTITY ns_svg "http://www.w3.org/2000/svg">
       <!ENTITY ns_xlink "http://www.w3.org/1999/xlink">
       <!ENTITY face_color "#000000">
       <!ENTITY fill_color "#CF3C26">
       <!ENTITY stroke_color "#FF0000">
       <!ENTITY magic_color "#8844FF">
]>
<!-- Created with Inkscape (http://www.inkscape.org/) -->
<svg
   xmlns:dc="http://purl.org/dc/elements/1.1/"
   xmlns:cc="http://creativecommons.org/ns#"
   xmlns:rdf="http://www.w3.org/1999/02/22-rdf-syntax-ns#"
   xmlns:svg="http://www.w3.org/2000/svg"
   xmlns="http://www.w3.org/2000/svg"
   xmlns:xlink="http://www.w3.org/1999/xlink"
   xmlns:sodipodi="http://sodipodi.sourceforge.net/DTD/sodipodi-0.dtd"
   xmlns:inkscape="http://www.inkscape.org/namespaces/inkscape"
   width="64px"
   height="64px"
   id="svg2404"
   sodipodi:version="0.32"
   inkscape:version="0.46"
   sodipodi:docname="activity-magicmaze.svg"
   inkscape:output_extension="org.inkscape.output.svg.inkscape">
  <defs
     id="defs2406">
    <linearGradient
       id="linearGradient32634">
      <stop
         style="stop-color:&magic_color;;stop-opacity:1;"
         offset="0"
         id="stop32636" />
      <stop
         style="stop-color:&magic_color;;stop-opacity:0;"
         offset="1"
         id="stop32638" />
    </linearGradient>
    <linearGradient
       inkscape:collect="always"
       xlink:href="#linearGradient32634"
       id="linearGradient32674"
       x1="-0.40592098"
       y1="15.571112"
       x2="29.288048"
       y2="15.571112"
       gradientUnits="userSpaceOnUse" />
    <inkscape:perspective
       sodipodi:type="inkscape:persp3d"
       inkscape:vp_x="0 : 32 : 1"
       inkscape:vp_y="0 : 1000 : 0"
       inkscape:vp_z="64 : 32 : 1"
       inkscape:persp3d-origin="32 : 21.333333 : 1"
       id="perspective2412" />
  </defs>
  <sodipodi:namedview
     id="base"
     pagecolor="#ffffff"
     bordercolor="#666666"
     borderopacity="1.0"
     inkscape:pageopacity="0.0"
     inkscape:pageshadow="2"
     inkscape:zoom="5.5"
     inkscape:cx="43.545827"
     inkscape:cy="34.155841"
     inkscape:current-layer="layer1"
     showgrid="true"
     inkscape:document-units="px"
     inkscape:grid-bbox="true"
     inkscape:window-width="640"
     inkscape:window-height="654"
     inkscape:window-x="0"
     inkscape:window-y="290" />
  <metadata
     id="metadata2409">
    <rdf:RDF>
      <cc:Work
         rdf:about="">
        <dc:format>image/svg+xml</dc:format>
        <dc:type
           rdf:resource="http://purl.org/dc/dcmitype/StillImage" />
      </cc:Work>
    </rdf:RDF>
  </metadata>
  <g
     id="layer1"
     inkscape:label="Layer 1"
     inkscape:groupmode="layer">
    <g
       id="g31114"
       transform="matrix(2.4053444,0,0,2.1028783,-2.5059499,6.3464129e-2)">
      <path
         style="fill:#fefe17"
         d="M 6.9631744,27.319687 C 8.1843136,25.76726 8.9858092,23.282529 8.9645646,21.115141 C 8.9298192,17.570398 8.9032915,17.546619 7.6022864,19.894052 C 6.2878892,22.265649 6.2588077,22.244544 4.5018639,17.644052 C 3.5263951,15.089824 2.3681188,13 1.9279166,13 C 1.4877144,13 2.3363504,11.7625 3.8137745,10.25 C 5.3533322,8.6738911 6.7971887,7.9149064 7.196205,8.4719749 C 7.9171319,9.4784641 8.6298265,8.0739096 9.201166,4.5206649 C 9.9946309,-0.41401037 20,0.41882212 20,5.4195442 C 20,6.7738762 20.45,8.1600813 21,8.5 C 21.55,8.8399187 22,8.6701749 22,8.1227915 C 22,7.5754081 23.2375,8.3363504 24.75,9.8137745 C 26.2625,11.291199 27.203344,12.726315 26.840764,13.002922 C 26.478184,13.279529 25.396372,15.468142 24.436737,17.866507 C 22.707672,22.187866 22.680133,22.205866 21.381408,19.863585 C 20.104713,17.561036 20.069956,17.593356 20.035435,21.115141 C 20.014191,23.282529 20.815686,25.76726 22.036826,27.319687 L 24.073651,29.909091 L 14.5,29.909091 L 4.9263488,29.909091 L 6.9631744,27.319687 z"
         id="path31152" />
      <path
         style="fill:#b752fe"
         d="M 6.9631744,27.319687 C 8.1843136,25.76726 8.9858092,23.282529 8.9645646,21.115141 C 8.9298192,17.570398 8.9032915,17.546619 7.6022864,19.894052 C 6.2878892,22.265649 6.2588077,22.244544 4.5018639,17.644052 C 3.5263951,15.089824 2.3681188,13 1.9279166,13 C 1.4877144,13 2.3363504,11.7625 3.8137745,10.25 C 5.3533322,8.6738911 6.7971887,7.9149064 7.196205,8.4719749 C 7.9171319,9.4784641 8.6298265,8.0739096 9.201166,4.5206649 C 9.9946309,-0.41401037 20,0.41882212 20,5.4195442 C 20,6.7738762 20.45,8.1600813 21,8.5 C 21.55,8.8399187 22,8.6701749 22,8.1227915 C 22,7.5754081 23.2375,8.3363504 24.75,9.8137745 C 26.2625,11.291199 27.203344,12.726315 26.840764,13.002922 C 26.478184,13.279529 25.396372,15.468142 24.436737,17.866507 C 22.707672,22.187866 22.680133,22.205866 21.381408,19.863585 C 20.104713,17.561036 20.069956,17.593356 20.035435,21.115141 C 20.014191,23.282529 20.815686,25.76726 22.036826,27.319687 L 24.073651,29.909091 L 14.5,29.909091 L 4.9263488,29.909091 L 6.9631744,27.319687 z"
         id="path31150" />
      <path
         style="fill:#e116fe"
         d="M 6.9631744,27.319687 C 8.1843136,25.76726 8.9858092,23.282529 8.9645646,21.115141 C 8.9298192,17.570398 8.9032915,17.546619 7.6022864,19.894052 C 6.2878892,22.265649 6.2588077,22.244544 4.5018639,17.644052 C 3.5263951,15.089824 2.3681188,13 1.9279166,13 C 1.4877144,13 2.3363504,11.7625 3.8137745,10.25 C 5.3533322,8.6738911 6.7971887,7.9149064 7.196205,8.4719749 C 7.9171319,9.4784641 8.6298265,8.0739096 9.201166,4.5206649 C 9.9946309,-0.41401037 20,0.41882212 20,5.4195442 C 20,6.7738762 20.45,8.1600813 21,8.5 C 21.55,8.8399187 22,8.6701749 22,8.1227915 C 22,7.5754081 23.2375,8.3363504 24.75,9.8137745 C 26.2625,11.291199 27.203344,12.726315 26.840764,13.002922 C 26.478184,13.279529 25.396372,15.468142 24.436737,17.866507 C 22.707672,22.187866 22.680133,22.205866 21.381408,19.863585 C 20.104713,17.561036 20.069956,17.593356 20.035435,21.115141 C 20.014191,23.282529 20.815686,25.76726 22.036826,27.319687 L 24.073651,29.909091 L 14.5,29.909091 L 4.9263488,29.909091 L 6.9631744,27.319687 z"
         id="path31148" />
      <path
         style="fill:#c816fe"
         d="M 7.4713941,26.447015 C 8.7635794,24.542874 9.6705671,22.200828 9.4869222,21.24247 C 9.3032774,20.284111 9.1026465,19.05 9.0410759,18.5 C 8.9795052,17.95 8.3320499,18.577324 7.6022864,19.894052 C 6.2878892,22.265649 6.2588077,22.244544 4.5018639,17.644052 C 3.5263951,15.089824 2.3681188,13 1.9279166,13 C 1.4877144,13 2.3363504,11.7625 3.8137745,10.25 C 5.3533322,8.6738911 6.7971887,7.9149064 7.196205,8.4719749 C 7.9171319,9.4784641 8.6298265,8.0739096 9.201166,4.5206649 C 9.9946309,-0.41401037 20,0.41882212 20,5.4195442 C 20,6.7738762 20.45,8.1600813 21,8.5 C 21.55,8.8399187 22,8.6701749 22,8.1227915 C 22,7.5754081 23.2375,8.3363504 24.75,9.8137745 C 26.2625,11.291199 27.203344,12.726315 26.840764,13.002922 C 26.478184,13.279529 25.396372,15.468142 24.436737,17.866507 C 22.707672,22.187866 22.680133,22.205866 21.381408,19.863585 C 20.660613,18.563613 20.020495,17.95 19.958924,18.5 C 19.897353,19.05 19.696723,20.284111 19.513078,21.24247 C 19.329433,22.200828 20.236421,24.542874 21.528606,26.447015 L 23.878034,29.909091 L 14.5,29.909091 L 5.1219662,29.909091 L 7.4713941,26.447015 z"
         id="path31146" />
      <path
         style="fill:#785ffe"
         d="M 7.4713941,26.447015 C 8.7635794,24.542874 9.6705671,22.200828 9.4869222,21.24247 C 9.3032774,20.284111 9.1026465,19.05 9.0410759,18.5 C 8.9795052,17.95 8.3320499,18.577324 7.6022864,19.894052 C 6.2878892,22.265649 6.2588077,22.244544 4.5018639,17.644052 C 3.5263951,15.089824 2.3681188,13 1.9279166,13 C 1.4877144,13 2.3363504,11.7625 3.8137745,10.25 C 5.3533322,8.6738911 6.7971887,7.9149064 7.196205,8.4719749 C 7.9171319,9.4784641 8.6298265,8.0739096 9.201166,4.5206649 C 9.9946309,-0.41401037 20,0.41882212 20,5.4195442 C 20,6.7738762 20.45,8.1600813 21,8.5 C 21.55,8.8399187 22,8.6701749 22,8.1227915 C 22,7.5754081 23.2375,8.3363504 24.75,9.8137745 C 26.2625,11.291199 27.203344,12.726315 26.840764,13.002922 C 26.478184,13.279529 25.396372,15.468142 24.436737,17.866507 C 22.707672,22.187866 22.680133,22.205866 21.381408,19.863585 C 20.660613,18.563613 20.020495,17.95 19.958924,18.5 C 19.897353,19.05 19.696723,20.284111 19.513078,21.24247 C 19.329433,22.200828 20.236421,24.542874 21.528606,26.447015 L 23.878034,29.909091 L 14.5,29.909091 L 5.1219662,29.909091 L 7.4713941,26.447015 z"
         id="path31144" />
      <path
         style="fill:#b116fe"
         d="M 7.4405478,26.49247 C 8.7496986,24.563328 9.6705671,22.200828 9.4869222,21.24247 C 9.3032774,20.284111 9.1026465,19.05 9.0410759,18.5 C 8.9795052,17.95 8.3320499,18.577324 7.6022864,19.894052 C 6.2878892,22.265649 6.2588077,22.244544 4.5018639,17.644052 C 3.5263951,15.089824 2.3681188,13 1.9279166,13 C 1.4877144,13 2.3363504,11.7625 3.8137745,10.25 C 5.3533322,8.6738911 6.7971887,7.9149064 7.196205,8.4719749 C 7.9171319,9.4784641 8.6298265,8.0739096 9.201166,4.5206649 C 9.9946309,-0.41401037 20,0.41882212 20,5.4195442 C 20,6.7738762 20.45,8.1600813 21,8.5 C 21.55,8.8399187 22,8.6701749 22,8.1227915 C 22,7.5754081 23.2375,8.3363504 24.75,9.8137745 C 26.2625,11.291199 27.203344,12.726315 26.840764,13.002922 C 26.478184,13.279529 25.396372,15.468142 24.436737,17.866507 C 22.707672,22.187866 22.680133,22.205866 21.381408,19.863585 C 20.660613,18.563613 20.020495,17.95 19.958924,18.5 C 19.897353,19.05 19.696723,20.284111 19.513078,21.24247 C 19.329433,22.200828 20.250301,24.563328 21.559452,26.49247 L 23.939726,30 L 19.469863,30 L 15,30 L 14.796455,21.75 L 14.592909,13.5 L 14.256012,21.75 L 13.919115,30 L 9.4896945,30 L 5.0602736,30 L 7.4405478,26.49247 z"
         id="path31142" />
      <path
         style="fill:#9bfe21"
         d="M 7.2960404,26.583135 C 8.5082182,24.70386 10.2125,22.965601 11.083333,22.720339 C 13.373084,22.075452 13.126886,19.154058 10.833333,19.753835 C 9.724246,20.043868 8.9860015,19.693384 8.9645646,18.866631 C 8.9450751,18.114984 8.3320499,18.577324 7.6022864,19.894052 C 6.2878892,22.265649 6.2588077,22.244544 4.5018639,17.644052 C 3.5263951,15.089824 2.3681188,13 1.9279166,13 C 1.4877144,13 2.3363504,11.7625 3.8137745,10.25 C 5.3533322,8.6738911 6.7971887,7.9149064 7.196205,8.4719749 C 7.9171319,9.4784641 8.6298265,8.0739096 9.201166,4.5206649 C 9.9946309,-0.41401037 20,0.41882212 20,5.4195442 C 20,6.7738762 20.45,8.1600813 21,8.5 C 21.55,8.8399187 22,8.6701749 22,8.1227915 C 22,7.5754081 23.2375,8.3363504 24.75,9.8137745 C 26.2625,11.291199 27.203344,12.726315 26.840764,13.002922 C 26.478184,13.279529 25.396372,15.468142 24.436737,17.866507 C 22.707672,22.187866 22.680133,22.205866 21.381408,19.863585 C 20.660613,18.563613 20.054925,18.114984 20.035435,18.866631 C 20.013999,19.693384 19.275754,20.043868 18.166667,19.753835 C 15.873114,19.154058 15.626916,22.075452 17.916667,22.720339 C 18.7875,22.965601 20.491782,24.70386 21.70396,26.583135 L 23.907919,30 L 19.45396,30 L 15,30 L 14.796455,21.75 L 14.592909,13.5 L 14.256012,21.75 L 13.919115,30 L 9.505598,30 L 5.0920807,30 L 7.2960404,26.583135 z M 9.2708333,21.395833 C 9.603125,21.063542 10.465625,21.028015 11.1875,21.316886 C 11.985233,21.636112 11.748276,21.873069 10.583333,21.921053 C 9.5291667,21.964474 8.9385417,21.728125 9.2708333,21.395833 z M 17.270833,21.395833 C 17.603125,21.063542 18.465625,21.028015 19.1875,21.316886 C 19.985233,21.636112 19.748276,21.873069 18.583333,21.921053 C 17.529167,21.964474 16.938542,21.728125 17.270833,21.395833 z"
         id="path31140" />
      <path
         style="fill:#a216fe"
         d="M 7.2960404,26.583135 C 8.5082182,24.70386 10.2125,22.965601 11.083333,22.720339 C 13.373084,22.075452 13.126886,19.154058 10.833333,19.753835 C 9.724246,20.043868 8.9860015,19.693384 8.9645646,18.866631 C 8.9450751,18.114984 8.3320499,18.577324 7.6022864,19.894052 C 6.2878892,22.265649 6.2588077,22.244544 4.5018639,17.644052 C 3.5263951,15.089824 2.3681188,13 1.9279166,13 C 1.4877144,13 2.3363504,11.7625 3.8137745,10.25 C 5.3533322,8.6738911 6.7971887,7.9149064 7.196205,8.4719749 C 7.9171319,9.4784641 8.6298265,8.0739096 9.201166,4.5206649 C 9.9946309,-0.41401037 20,0.41882212 20,5.4195442 C 20,6.7738762 20.45,8.1600813 21,8.5 C 21.55,8.8399187 22,8.6701749 22,8.1227915 C 22,7.5754081 23.2375,8.3363504 24.75,9.8137745 C 26.2625,11.291199 27.203344,12.726315 26.840764,13.002922 C 26.478184,13.279529 25.396372,15.468142 24.436737,17.866507 C 22.707672,22.187866 22.680133,22.205866 21.381408,19.863585 C 20.660613,18.563613 20.054925,18.114984 20.035435,18.866631 C 20.013999,19.693384 19.275754,20.043868 18.166667,19.753835 C 15.873114,19.154058 15.626916,22.075452 17.916667,22.720339 C 18.7875,22.965601 20.491782,24.70386 21.70396,26.583135 L 23.907919,30 L 19.45396,30 L 15,30 L 14.796455,21.75 L 14.592909,13.5 L 14.256012,21.75 L 13.919115,30 L 9.505598,30 L 5.0920807,30 L 7.2960404,26.583135 z M 9.2708333,21.395833 C 9.603125,21.063542 10.465625,21.028015 11.1875,21.316886 C 11.985233,21.636112 11.748276,21.873069 10.583333,21.921053 C 9.5291667,21.964474 8.9385417,21.728125 9.2708333,21.395833 z M 17.270833,21.395833 C 17.603125,21.063542 18.465625,21.028015 19.1875,21.316886 C 19.985233,21.636112 19.748276,21.873069 18.583333,21.921053 C 17.529167,21.964474 16.938542,21.728125 17.270833,21.395833 z"
         id="path31138" />
      <path
         style="fill:&magic_color;"
         d="M 7.2960404,26.583135 C 8.5082182,24.70386 10.2125,22.965601 11.083333,22.720339 C 13.373084,22.075452 13.126886,19.154058 10.833333,19.753835 C 9.724246,20.043868 8.9860015,19.693384 8.9645646,18.866631 C 8.9450751,18.114984 8.3320499,18.577324 7.6022864,19.894052 C 6.2878892,22.265649 6.2588077,22.244544 4.5018639,17.644052 C 3.5263951,15.089824 2.3681188,13 1.9279166,13 C 1.4877144,13 2.3363504,11.7625 3.8137745,10.25 C 5.3533322,8.6738911 6.7971887,7.9149064 7.196205,8.4719749 C 7.9171319,9.4784641 8.6298265,8.0739096 9.201166,4.5206649 C 9.9946309,-0.41401037 20,0.41882212 20,5.4195442 C 20,6.7738762 20.45,8.1600813 21,8.5 C 21.55,8.8399187 22,8.6701749 22,8.1227915 C 22,7.5754081 23.2375,8.3363504 24.75,9.8137745 C 26.2625,11.291199 27.203344,12.726315 26.840764,13.002922 C 26.478184,13.279529 25.396372,15.468142 24.436737,17.866507 C 22.707672,22.187866 22.680133,22.205866 21.381408,19.863585 C 20.660613,18.563613 20.054925,18.114984 20.035435,18.866631 C 20.013999,19.693384 19.275754,20.043868 18.166667,19.753835 C 15.873114,19.154058 15.626916,22.075452 17.916667,22.720339 C 18.7875,22.965601 20.491782,24.70386 21.70396,26.583135 L 23.907919,30 L 19.45396,30 L 15,30 L 14.796455,21.75 L 14.592909,13.5 L 14.256012,21.75 L 13.919115,30 L 9.505598,30 L 5.0920807,30 L 7.2960404,26.583135 z M 7.4472136,11.91459 C 7.125238,11.393622 6.4355573,11.230811 5.9145898,11.552786 C 5.3936223,11.874762 5.2308108,12.564443 5.5527864,13.08541 C 5.874762,13.606378 6.5644427,13.769189 7.0854102,13.447214 C 7.6063777,13.125238 7.7691892,12.435557 7.4472136,11.91459 z M 23.447214,11.91459 C 23.125238,11.393622 22.435557,11.230811 21.91459,11.552786 C 21.393622,11.874762 21.230811,12.564443 21.552786,13.08541 C 21.874762,13.606378 22.564443,13.769189 23.08541,13.447214 C 23.606378,13.125238 23.769189,12.435557 23.447214,11.91459 z M 9.2708333,21.395833 C 9.603125,21.063542 10.465625,21.028015 11.1875,21.316886 C 11.985233,21.636112 11.748276,21.873069 10.583333,21.921053 C 9.5291667,21.964474 8.9385417,21.728125 9.2708333,21.395833 z M 17.270833,21.395833 C 17.603125,21.063542 18.465625,21.028015 19.1875,21.316886 C 19.985233,21.636112 19.748276,21.873069 18.583333,21.921053 C 17.529167,21.964474 16.938542,21.728125 17.270833,21.395833 z"
         id="path31136" />
      <path
         style="fill:&magic_color;"
         d="M 7.2960404,26.583135 C 8.5082182,24.70386 10.2125,22.965601 11.083333,22.720339 C 13.373084,22.075452 13.126886,19.154058 10.833333,19.753835 C 9.724246,20.043868 8.9860015,19.693384 8.9645646,18.866631 C 8.9450751,18.114984 8.3320499,18.577324 7.6022864,19.894052 C 6.2878892,22.265649 6.2588077,22.244544 4.5018639,17.644052 C 3.5263951,15.089824 2.3681188,13 1.9279166,13 C 1.4877144,13 2.3363504,11.7625 3.8137745,10.25 C 5.3533322,8.6738911 6.7971887,7.9149064 7.196205,8.4719749 C 7.9171319,9.4784641 8.6298265,8.0739096 9.201166,4.5206649 C 9.9946309,-0.41401037 20,0.41882212 20,5.4195442 C 20,6.7738762 20.45,8.1600813 21,8.5 C 21.55,8.8399187 22,8.6701749 22,8.1227915 C 22,7.5754081 23.2375,8.3363504 24.75,9.8137745 C 26.2625,11.291199 27.203344,12.726315 26.840764,13.002922 C 26.478184,13.279529 25.396372,15.468142 24.436737,17.866507 C 22.707672,22.187866 22.680133,22.205866 21.381408,19.863585 C 20.660613,18.563613 20.054925,18.114984 20.035435,18.866631 C 20.013999,19.693384 19.275754,20.043868 18.166667,19.753835 C 15.873114,19.154058 15.626916,22.075452 17.916667,22.720339 C 18.7875,22.965601 20.491782,24.70386 21.70396,26.583135 L 23.907919,30 L 19.45396,30 L 15,30 L 14.796455,21.75 L 14.592909,13.5 L 14.256012,21.75 L 13.919115,30 L 9.505598,30 L 5.0920807,30 L 7.2960404,26.583135 z M 7.6277175,11.446554 C 6.8882455,10.654947 6.2381615,10.632811 5.4465542,11.372283 C 4.6549468,12.111755 4.6328105,12.761838 5.3722825,13.553446 C 6.1117545,14.345053 6.7618385,14.367189 7.5534458,13.627717 C 8.3450532,12.888245 8.3671895,12.238162 7.6277175,11.446554 z M 23.627717,11.446554 C 22.888245,10.654947 22.238162,10.632811 21.446554,11.372283 C 20.654947,12.111755 20.632811,12.761838 21.372283,13.553446 C 22.111755,14.345053 22.761838,14.367189 23.553446,13.627717 C 24.345053,12.888245 24.367189,12.238162 23.627717,11.446554 z M 9.2708333,21.395833 C 9.603125,21.063542 10.465625,21.028015 11.1875,21.316886 C 11.985233,21.636112 11.748276,21.873069 10.583333,21.921053 C 9.5291667,21.964474 8.9385417,21.728125 9.2708333,21.395833 z M 17.270833,21.395833 C 17.603125,21.063542 18.465625,21.028015 19.1875,21.316886 C 19.985233,21.636112 19.748276,21.873069 18.583333,21.921053 C 17.529167,21.964474 16.938542,21.728125 17.270833,21.395833 z"
         id="path31134" />
      <path
         style="fill:&magic_color;"
         d="M 7.2960404,26.583135 C 8.5082182,24.70386 10.2125,22.965601 11.083333,22.720339 C 13.373084,22.075452 13.126886,19.154058 10.833333,19.753835 C 9.724246,20.043868 8.9860015,19.693384 8.9645646,18.866631 C 8.9450751,18.114984 8.3393874,18.563613 7.618592,19.863585 C 6.3198671,22.205866 6.2923285,22.187866 4.5632633,17.866507 C 3.6036279,15.468142 2.5218156,13.279529 2.1592359,13.002922 C 1.7966561,12.726315 2.7375,11.291199 4.25,9.8137745 C 5.7625,8.3363504 7,7.5488504 7,8.0637745 C 7,8.5786985 6.2125,9.7875 5.25,10.75 C 3.6944444,12.305556 3.6666667,12.666667 5,14 C 6.3333333,15.333333 6.6777595,15.32224 8.0998359,13.900164 C 9.5662838,12.433716 9.5662838,12.213067 8.0998359,11.253735 C 6.8152554,10.413378 6.7463185,9.9502664 7.75,8.9035706 C 8.4375,8.1866068 9,6.5553525 9,5.2785612 C 9,0.0002361701 19.112195,-0.24072032 19.845818,5.0201237 C 20.036018,6.3840557 20.70791,8.127917 21.33891,8.895371 C 22.223779,9.9715919 22.121848,10.520559 20.893256,11.295535 C 19.436671,12.214326 19.437262,12.437262 20.900164,13.900164 C 22.32224,15.32224 22.666667,15.333333 24,14 C 25.333333,12.666667 25.305556,12.305556 23.75,10.75 C 22.7875,9.7875 22,8.5786985 22,8.0637745 C 22,7.5488504 23.2375,8.3363504 24.75,9.8137745 C 26.2625,11.291199 27.203344,12.726315 26.840764,13.002922 C 26.478184,13.279529 25.396372,15.468142 24.436737,17.866507 C 22.707672,22.187866 22.680133,22.205866 21.381408,19.863585 C 20.660613,18.563613 20.054925,18.114984 20.035435,18.866631 C 20.013999,19.693384 19.275754,20.043868 18.166667,19.753835 C 15.873114,19.154058 15.626916,22.075452 17.916667,22.720339 C 18.7875,22.965601 20.491782,24.70386 21.70396,26.583135 L 23.907919,30 L 19.45396,30 L 15,30 L 14.796455,21.75 L 14.592909,13.5 L 14.256012,21.75 L 13.919115,30 L 9.505598,30 L 5.0920807,30 L 7.2960404,26.583135 z M 9.2708333,21.395833 C 9.603125,21.063542 10.465625,21.028015 11.1875,21.316886 C 11.985233,21.636112 11.748276,21.873069 10.583333,21.921053 C 9.5291667,21.964474 8.9385417,21.728125 9.2708333,21.395833 z M 17.270833,21.395833 C 17.603125,21.063542 18.465625,21.028015 19.1875,21.316886 C 19.985233,21.636112 19.748276,21.873069 18.583333,21.921053 C 17.529167,21.964474 16.938542,21.728125 17.270833,21.395833 z"
         id="path31132" />
      <path
         style="fill:#5721fe"
         d="M 7.2960404,26.583135 C 8.5082182,24.70386 10.2125,22.965601 11.083333,22.720339 C 13.373084,22.075452 13.126886,19.154058 10.833333,19.753835 C 9.724246,20.043868 8.9860015,19.693384 8.9645646,18.866631 C 8.9450751,18.114984 8.3393874,18.563613 7.618592,19.863585 C 6.3147357,22.215121 6.2996229,22.206097 4.6540274,18.093349 C 2.7091766,13.232688 2.6807697,13 4.0322242,13 C 4.5999475,13 5.4714237,14.0125 5.9688379,15.25 C 6.6813537,17.022644 6.8866753,17.121886 6.9366137,15.717776 C 6.9714762,14.737552 8.0125,13.528576 9.25,13.031162 C 10.880209,12.375898 11.034198,12.109312 9.809017,12.063386 C 7.6022871,11.980667 6.5653346,10.232109 7.8180919,8.7061951 C 8.3627414,8.0427878 8.9639819,6.3840557 9.1541818,5.0201237 C 9.8878053,-0.24072032 20,0.0002361701 20,5.2785612 C 20,6.5553525 20.50079,8.1007905 21.112868,8.7128677 C 22.505898,10.105898 21.431237,11.979411 19.190983,12.063386 C 17.965802,12.109312 18.119791,12.375898 19.75,13.031162 C 20.9875,13.528576 22.028524,14.737552 22.063386,15.717776 C 22.113325,17.121886 22.318646,17.022644 23.031162,15.25 C 23.528576,14.0125 24.400052,13 24.967776,13 C 26.31923,13 26.290823,13.232688 24.345973,18.093349 C 22.700377,22.206097 22.685264,22.215121 21.381408,19.863585 C 20.660613,18.563613 20.054925,18.114984 20.035435,18.866631 C 20.013999,19.693384 19.275754,20.043868 18.166667,19.753835 C 15.873114,19.154058 15.626916,22.075452 17.916667,22.720339 C 18.7875,22.965601 20.491782,24.70386 21.70396,26.583135 L 23.907919,30 L 19.45396,30 L 15,30 L 14.796455,21.75 L 14.592909,13.5 L 14.256012,21.75 L 13.919115,30 L 9.505598,30 L 5.0920807,30 L 7.2960404,26.583135 z M 4.020056,10.475834 C 4.715776,9.6375427 5.4909371,9.1576037 5.7426362,9.4093029 C 6.4361337,10.1028 5.027093,12 3.8185383,12 C 3.1554447,12 3.2313073,11.426218 4.020056,10.475834 z M 23.458881,10.933469 C 22.382611,9.192026 23.608403,8.8232278 24.979944,10.475834 C 25.768693,11.426218 25.844555,12 25.181462,12 C 24.596576,12 23.821415,11.520061 23.458881,10.933469 z"
         id="path31130" />
      <path
         style="fill:#5a16fe"
         d="M 7.2960404,26.583135 C 8.5082182,24.70386 10.2875,22.945988 11.25,22.676755 C 12.2125,22.407521 13,21.512239 13,20.687239 C 13,19.679569 12.343561,19.358902 11,19.710251 C 9.7283278,20.042801 8.9870957,19.735585 8.9645646,18.866631 C 8.9450751,18.114984 8.3393874,18.563613 7.618592,19.863585 C 6.3147357,22.215121 6.2996229,22.206097 4.6540274,18.093349 C 2.7091766,13.232688 2.6807697,13 4.0322242,13 C 4.5999475,13 5.4714237,14.0125 5.9688379,15.25 C 6.6813537,17.022644 6.8866753,17.121886 6.9366137,15.717776 C 6.9714762,14.737552 8.0125,13.528576 9.25,13.031162 C 10.880209,12.375898 11.034198,12.109312 9.809017,12.063386 C 7.6022871,11.980667 6.5653346,10.232109 7.8180919,8.7061951 C 8.3627414,8.0427878 8.9639819,6.3840557 9.1541818,5.0201237 C 9.8878053,-0.24072032 20,0.0002361701 20,5.2785612 C 20,6.5553525 20.50079,8.1007905 21.112868,8.7128677 C 22.505898,10.105898 21.431237,11.979411 19.190983,12.063386 C 17.965802,12.109312 18.119791,12.375898 19.75,13.031162 C 20.9875,13.528576 22.028524,14.737552 22.063386,15.717776 C 22.113325,17.121886 22.318646,17.022644 23.031162,15.25 C 23.528576,14.0125 24.400052,13 24.967776,13 C 26.31923,13 26.290823,13.232688 24.345973,18.093349 C 22.700377,22.206097 22.685264,22.215121 21.381408,19.863585 C 20.660613,18.563613 20.054925,18.114984 20.035435,18.866631 C 20.012904,19.735585 19.271672,20.042801 18,19.710251 C 16.656439,19.358902 16,19.679569 16,20.687239 C 16,21.512239 16.7875,22.407521 17.75,22.676755 C 18.7125,22.945988 20.491782,24.70386 21.70396,26.583135 L 23.907919,30 L 19.45396,30 L 15,30 L 14.796455,21.75 L 14.592909,13.5 L 14.256012,21.75 L 13.919115,30 L 9.505598,30 L 5.0920807,30 L 7.2960404,26.583135 z M 4.020056,10.475834 C 4.715776,9.6375427 5.4909371,9.1576037 5.7426362,9.4093029 C 6.4361337,10.1028 5.027093,12 3.8185383,12 C 3.1554447,12 3.2313073,11.426218 4.020056,10.475834 z M 23.458881,10.933469 C 22.382611,9.192026 23.608403,8.8232278 24.979944,10.475834 C 25.768693,11.426218 25.844555,12 25.181462,12 C 24.596576,12 23.821415,11.520061 23.458881,10.933469 z"
         id="path31128" />
      <path
         style="fill:&stroke_color;"
         d="M 7.2960404,26.583135 C 8.5082182,24.70386 10.2875,22.945988 11.25,22.676755 C 12.2125,22.407521 13,21.512239 13,20.687239 C 13,19.679569 12.343561,19.358902 11,19.710251 C 9.7283278,20.042801 8.9870957,19.735585 8.9645646,18.866631 C 8.9450751,18.114984 8.3393874,18.563613 7.618592,19.863585 C 6.3171697,22.210731 6.2962598,22.197691 4.6121812,17.988765 C 3.6794507,15.657642 3.1301993,13.536467 3.3916226,13.275044 C 4.34636,12.320307 6.0026332,14.175913 6.09968,16.309017 C 6.1923796,18.34657 6.247455,18.327484 6.8861545,16.036475 C 7.2864812,14.600507 8.6005065,13.286481 10.036475,12.886155 C 12.327484,12.247455 12.34657,12.19238 10.309017,12.09968 C 7.6589953,11.979116 6.4657101,10.353456 7.8180919,8.7061951 C 8.3627414,8.0427878 8.9639819,6.3840557 9.1541818,5.0201237 C 9.8878053,-0.24072032 20,0.0002361701 20,5.2785612 C 20,6.5553525 20.50079,8.1007905 21.112868,8.7128677 C 22.622152,10.222152 21.366592,11.977952 18.690983,12.09968 C 16.65343,12.19238 16.672516,12.247455 18.963525,12.886155 C 20.399493,13.286481 21.713519,14.600507 22.113845,16.036475 C 22.752545,18.327484 22.80762,18.34657 22.90032,16.309017 C 22.997367,14.175913 24.65364,12.320307 25.608377,13.275044 C 25.869801,13.536467 25.320549,15.657642 24.387819,17.988765 C 22.70374,22.197691 22.68283,22.210731 21.381408,19.863585 C 20.660613,18.563613 20.054925,18.114984 20.035435,18.866631 C 20.012904,19.735585 19.271672,20.042801 18,19.710251 C 16.656439,19.358902 16,19.679569 16,20.687239 C 16,21.512239 16.7875,22.407521 17.75,22.676755 C 18.7125,22.945988 20.491782,24.70386 21.70396,26.583135 L 23.907919,30 L 19.45396,30 L 15,30 L 14.796455,21.75 L 14.592909,13.5 L 14.256012,21.75 L 13.919115,30 L 9.505598,30 L 5.0920807,30 L 7.2960404,26.583135 z M 4.2105734,10.600859 C 4.919758,9.8313318 5.657561,9.3513928 5.8501355,9.5343281 C 6.4432841,10.097787 4.939997,12 3.9015564,12 C 3.3623312,12 3.5013888,11.370387 4.2105734,10.600859 z M 23.458881,10.933469 C 22.432818,9.2732636 23.353769,9.0430445 24.789427,10.600859 C 25.498611,11.370387 25.637669,12 25.098444,12 C 24.559218,12 23.821415,11.520061 23.458881,10.933469 z"
         id="path31126" />
      <path
         style="fill:#61d326"
         d="M 10.267601,29.187954 L 7.0352019,28.875908 L 8.7435942,26.187954 C 9.6832099,24.709579 11.025289,23.140139 11.725993,22.70031 C 13.541057,21.561 13.346845,18.929673 11.5,19.638374 C 10.675,19.954956 10,19.715833 10,19.106989 C 10,17.224765 8.3566883,17.885571 7.333165,20.179373 C 6.4301127,22.20319 6.2377762,22.051526 4.6385044,18.054553 C 3.6912961,15.687246 3.1301993,13.536467 3.3916226,13.275044 C 4.34636,12.320307 6.0026332,14.175913 6.09968,16.309017 C 6.1923796,18.34657 6.247455,18.327484 6.8861545,16.036475 C 7.2864812,14.600507 8.6005065,13.286481 10.036475,12.886155 C 12.327484,12.247455 12.34657,12.19238 10.309017,12.09968 C 7.6589953,11.979116 6.4657101,10.353456 7.8180919,8.7061951 C 8.3627414,8.0427878 8.9639819,6.3840557 9.1541818,5.0201237 C 9.8878053,-0.24072032 20,0.0002361701 20,5.2785612 C 20,6.5553525 20.50079,8.1007905 21.112868,8.7128677 C 22.622152,10.222152 21.366592,11.977952 18.690983,12.09968 C 16.65343,12.19238 16.672516,12.247455 18.963525,12.886155 C 20.399493,13.286481 21.713519,14.600507 22.113845,16.036475 C 22.752545,18.327484 22.80762,18.34657 22.90032,16.309017 C 22.997367,14.175913 24.65364,12.320307 25.608377,13.275044 C 25.869801,13.536467 25.308704,15.687246 24.361496,18.054553 C 22.762224,22.051526 22.569887,22.20319 21.666835,20.179373 C 20.643312,17.885571 19,17.224765 19,19.106989 C 19,19.715833 18.325,19.954956 17.5,19.638374 C 15.653155,18.929673 15.458943,21.561 17.274007,22.70031 C 17.974711,23.140139 19.304381,24.690641 20.22883,26.145868 L 21.909646,28.791736 L 18.454823,29.195067 L 15,29.598399 L 14.813697,21.549199 L 14.627394,13.5 L 14.063697,21.5 L 13.5,29.5 L 10.267601,29.187954 z M 10.5,10 C 10.160081,9.45 9.4585237,9 8.940983,9 C 8.4234424,9 8,9.45 8,10 C 8,10.55 8.7015576,11 9.559017,11 C 10.416476,11 10.839919,10.55 10.5,10 z M 21,10 C 21,9.45 20.576558,9 20.059017,9 C 19.541476,9 18.839919,9.45 18.5,10 C 18.160081,10.55 18.583524,11 19.440983,11 C 20.298442,11 21,10.55 21,10 z M 4.2105734,10.600859 C 4.919758,9.8313318 5.657561,9.3513928 5.8501355,9.5343281 C 6.4432841,10.097787 4.939997,12 3.9015564,12 C 3.3623312,12 3.5013888,11.370387 4.2105734,10.600859 z M 23.458881,10.933469 C 22.432818,9.2732636 23.353769,9.0430445 24.789427,10.600859 C 25.498611,11.370387 25.637669,12 25.098444,12 C 24.559218,12 23.821415,11.520061 23.458881,10.933469 z"
         id="path31124" />
      <path
         style="fill:&fill_color;"
         d="M 10.267601,29.187954 L 7.0352019,28.875908 L 8.7435942,26.187954 C 9.6832099,24.709579 11.025289,23.140139 11.725993,22.70031 C 13.541057,21.561 13.346845,18.929673 11.5,19.638374 C 10.675,19.954956 10,19.715833 10,19.106989 C 10,17.224765 8.3566883,17.885571 7.333165,20.179373 C 6.4301127,22.20319 6.2377762,22.051526 4.6385044,18.054553 C 3.6912961,15.687246 3.1301993,13.536467 3.3916226,13.275044 C 4.34636,12.320307 6.0026332,14.175913 6.09968,16.309017 C 6.1923796,18.34657 6.247455,18.327484 6.8861545,16.036475 C 7.2864812,14.600507 8.6005065,13.286481 10.036475,12.886155 C 12.327484,12.247455 12.34657,12.19238 10.309017,12.09968 C 7.6589953,11.979116 6.4657101,10.353456 7.8180919,8.7061951 C 8.3627414,8.0427878 8.9639819,6.3840557 9.1541818,5.0201237 C 9.8878053,-0.24072032 20,0.0002361701 20,5.2785612 C 20,6.5553525 20.50079,8.1007905 21.112868,8.7128677 C 22.622152,10.222152 21.366592,11.977952 18.690983,12.09968 C 16.65343,12.19238 16.672516,12.247455 18.963525,12.886155 C 20.399493,13.286481 21.713519,14.600507 22.113845,16.036475 C 22.752545,18.327484 22.80762,18.34657 22.90032,16.309017 C 22.997367,14.175913 24.65364,12.320307 25.608377,13.275044 C 25.869801,13.536467 25.308704,15.687246 24.361496,18.054553 C 22.762224,22.051526 22.569887,22.20319 21.666835,20.179373 C 20.643312,17.885571 19,17.224765 19,19.106989 C 19,19.715833 18.325,19.954956 17.5,19.638374 C 15.653155,18.929673 15.458943,21.561 17.274007,22.70031 C 17.974711,23.140139 19.304381,24.690641 20.22883,26.145868 L 21.909646,28.791736 L 18.454823,29.195067 L 15,29.598399 L 14.813697,21.549199 L 14.627394,13.5 L 14.063697,21.5 L 13.5,29.5 L 10.267601,29.187954 z M 10.5,10 C 10.160081,9.45 9.4585237,9 8.940983,9 C 8.4234424,9 8,9.45 8,10 C 8,10.55 8.7015576,11 9.559017,11 C 10.416476,11 10.839919,10.55 10.5,10 z M 21,10 C 21,9.45 20.576558,9 20.059017,9 C 19.541476,9 18.839919,9.45 18.5,10 C 18.160081,10.55 18.583524,11 19.440983,11 C 20.298442,11 21,10.55 21,10 z M 13.5,5 C 13.160081,4.45 12.458524,4 11.940983,4 C 11.423442,4 11,4.45 11,5 C 11,5.55 11.701558,6 12.559017,6 C 13.416476,6 13.839919,5.55 13.5,5 z M 18,5 C 18,4.45 17.576558,4 17.059017,4 C 16.541476,4 15.839919,4.45 15.5,5 C 15.160081,5.55 15.583524,6 16.440983,6 C 17.298442,6 18,5.55 18,5 z M 4.2105734,10.600859 C 4.919758,9.8313318 5.657561,9.3513928 5.8501355,9.5343281 C 6.4432841,10.097787 4.939997,12 3.9015564,12 C 3.3623312,12 3.5013888,11.370387 4.2105734,10.600859 z M 23.458881,10.933469 C 22.432818,9.2732636 23.353769,9.0430445 24.789427,10.600859 C 25.498611,11.370387 25.637669,12 25.098444,12 C 24.559218,12 23.821415,11.520061 23.458881,10.933469 z"
         id="path31122" />
      <path
         style="fill:&stroke_color;"
         d="M 13.186303,22.70034 C 13.005448,15.12875 11.121247,9 8.9743199,9 C 7.5690845,9 7.7745563,10.742365 9.25,11.337719 C 10.151307,11.701405 10.16777,11.864128 9.309017,11.921053 C 7.5682899,12.036441 6.6715259,10.102764 7.8180919,8.7061951 C 8.3627414,8.0427878 8.9639819,6.3840557 9.1541818,5.0201237 C 9.8878053,-0.24072032 20,0.0002361701 20,5.2785612 C 20,6.5553525 20.50079,8.1007905 21.112868,8.7128677 C 22.383234,9.9832344 21.472057,12.039116 19.690983,11.921053 C 18.83223,11.864128 18.848693,11.701405 19.75,11.337719 C 21.220243,10.744463 21.433055,9 20.035184,9 C 18.003361,9 16.478194,13.82093 15.922456,22 L 15.344912,30.5 L 14.986153,22 L 14.627394,13.5 L 14,22 L 13.372606,30.5 L 13.186303,22.70034 z M 13.5,5 C 13.160081,4.45 12.458524,4 11.940983,4 C 11.423442,4 11,4.45 11,5 C 11,5.55 11.701558,6 12.559017,6 C 13.416476,6 13.839919,5.55 13.5,5 z M 18,5 C 18,4.45 17.576558,4 17.059017,4 C 16.541476,4 15.839919,4.45 15.5,5 C 15.160081,5.55 15.583524,6 16.440983,6 C 17.298442,6 18,5.55 18,5 z M 4.6158678,17.997978 C 3.6811097,15.661788 3.1301993,13.536467 3.3916226,13.275044 C 4.34636,12.320307 6.0026332,14.175913 6.09968,16.309017 C 6.1936301,18.374054 6.2383285,18.360552 6.8772632,16.074139 C 7.2501099,14.739915 8.1524763,13.449175 8.8825219,13.205826 C 10.337495,12.720835 9.773607,15.506739 7.5330768,19.872799 C 6.3321504,22.213012 6.2920877,22.187264 4.6158678,17.997978 z M 20.615868,17.997978 C 19.68111,15.661788 19.130199,13.536467 19.391623,13.275044 C 20.34636,12.320307 22.002633,14.175913 22.09968,16.309017 C 22.19363,18.374054 22.238329,18.360552 22.877263,16.074139 C 23.25011,14.739915 24.152476,13.449175 24.882522,13.205826 C 26.337495,12.720835 25.773607,15.506739 23.533077,19.872799 C 22.33215,22.213012 22.292088,22.187264 20.615868,17.997978 z M 4.2105734,10.600859 C 4.919758,9.8313318 5.657561,9.3513928 5.8501355,9.5343281 C 6.4432841,10.097787 4.939997,12 3.9015564,12 C 3.3623312,12 3.5013888,11.370387 4.2105734,10.600859 z M 23.458881,10.933469 C 22.432818,9.2732636 23.353769,9.0430445 24.789427,10.600859 C 25.498611,11.370387 25.637669,12 25.098444,12 C 24.559218,12 23.821415,11.520061 23.458881,10.933469 z"
         id="path31120" />
      <path
         style="fill:#a53c26"
         d="M 13.203545,22.684259 C 13.091595,18.385601 12.497433,13.885601 11.883185,12.684259 C 10.853221,10.669863 10.895465,10.622788 12.426392,12.078921 C 13.776673,13.363234 14.023036,15.229116 13.746752,22.078921 L 13.407091,30.5 L 13.203545,22.684259 z M 15.172456,22.157729 C 15.034919,15.504613 14.595037,13.300632 13,11.272871 C 10.552065,8.1608256 10.429125,6 12.7,6 C 14.053896,6 14.147214,5.7472136 13.158359,4.7583592 C 12.169505,3.7695048 11.718958,3.8204025 10.945355,5.0083592 C 10.411106,5.8287616 10.153911,7.2538319 10.373811,8.1751821 C 10.623845,9.2227878 10.295725,9.6669747 9.4979637,9.360845 C 8.505062,8.9798329 8.4712415,8.2117974 9.3453856,5.8959252 C 11.299706,0.71834055 17.709022,0.74146337 19.668672,5.9331684 C 20.528068,8.2099668 20.490559,8.9815133 19.502036,9.360845 C 18.704275,9.6669747 18.376155,9.2227878 18.626189,8.1751821 C 18.846089,7.2538319 18.588894,5.8287616 18.054645,5.0083592 C 17.281042,3.8204025 16.830495,3.7695048 15.841641,4.7583592 C 14.852786,5.7472136 14.946104,6 16.3,6 C 18.466486,6 18.465636,7.878665 16.297724,11.027494 C 14.648415,13.423067 14.654388,13.453327 16.489683,12 C 18.173446,10.666667 18.279255,10.666667 17.441958,12 C 16.923881,12.825 16.240105,17.325 15.922456,22 L 15.344912,30.5 L 15.172456,22.157729 z M 6,19.910065 C 6,19.677267 5.5789224,18.018584 5.064272,16.224103 C 4.4833014,14.198377 4.4833014,13.180663 5.064272,13.539722 C 5.5789224,13.857794 6.0522006,15.103976 6.1160014,16.309017 C 6.2232803,18.335256 6.2681747,18.349616 6.713066,16.5 C 6.9776508,15.4 7.5925971,14.080353 8.0796132,13.567451 C 8.5666294,13.05455 8.5368353,14.128165 8.0134041,15.953263 C 7.1867767,18.835544 6,21.167833 6,19.910065 z M 22,19.910065 C 22,19.677267 21.578922,18.018584 21.064272,16.224103 C 20.483301,14.198377 20.483301,13.180663 21.064272,13.539722 C 21.578922,13.857794 22.052201,15.103976 22.116001,16.309017 C 22.22328,18.335256 22.268175,18.349616 22.713066,16.5 C 22.977651,15.4 23.592597,14.080353 24.079613,13.567451 C 24.566629,13.05455 24.536835,14.128165 24.013404,15.953263 C 23.186777,18.835544 22,21.167833 22,19.910065 z"
         id="path31118" />
      <path
         style="fill:&face_color;"
         d="M 6,19.910065 C 6,19.677267 5.5789224,18.018584 5.064272,16.224103 C 4.4833014,14.198377 4.4833014,13.180663 5.064272,13.539722 C 5.5789224,13.857794 6.0522006,15.103976 6.1160014,16.309017 C 6.2232803,18.335256 6.2681747,18.349616 6.713066,16.5 C 6.9776508,15.4 7.5925971,14.080353 8.0796132,13.567451 C 8.5666294,13.05455 8.5368353,14.128165 8.0134041,15.953263 C 7.1867767,18.835544 6,21.167833 6,19.910065 z M 22,19.910065 C 22,19.677267 21.578922,18.018584 21.064272,16.224103 C 20.483301,14.198377 20.483301,13.180663 21.064272,13.539722 C 21.578922,13.857794 22.052201,15.103976 22.116001,16.309017 C 22.22328,18.335256 22.268175,18.349616 22.713066,16.5 C 22.977651,15.4 23.592597,14.080353 24.079613,13.567451 C 24.566629,13.05455 24.536835,14.128165 24.013404,15.953263 C 23.186777,18.835544 22,21.167833 22,19.910065 z M 12.671027,10.816921 C 9.0443475,5.0725499 9.6775607,2.0306255 14.5,2.0306255 C 18.409347,2.0306255 19.347426,3.4172602 18.065613,7.30119 C 16.354957,12.484528 14.490858,13.699389 12.671027,10.816921 z M 13.5,5 C 13.160081,4.45 12.458524,4 11.940983,4 C 11.423442,4 11,4.45 11,5 C 11,5.55 11.701558,6 12.559017,6 C 13.416476,6 13.839919,5.55 13.5,5 z M 18,5 C 18,4.45 17.576558,4 17.059017,4 C 16.541476,4 15.839919,4.45 15.5,5 C 15.160081,5.55 15.583524,6 16.440983,6 C 17.298442,6 18,5.55 18,5 z"
         id="path31116" />
    </g>
    <path
       sodipodi:type="arc"
       style="opacity:1;fill:&face_color;;fill-opacity:0;fill-rule:nonzero;stroke:url(#linearGradient32674);stroke-opacity:1"
       id="path31174"
       sodipodi:cx="14.441063"
       sodipodi:cy="15.571112"
       sodipodi:rx="14.346984"
       sodipodi:ry="15.522966"
       d="M 28.788047,15.571112 A 14.346984,15.522966 0 1 1 0.094079018,15.571112 A 14.346984,15.522966 0 1 1 28.788047,15.571112 z"
       transform="matrix(2.0206462,0.2564415,-0.2464779,1.9421378,6.7553296,-1.8035044)" />
  </g>
</svg>
